<svg xmlns="http://www.w3.org/2000/svg" viewBox="0 0 220 140" width="220" height="140">
  <defs>
    <linearGradient id="bg" x1="0" y1="0" x2="1" y2="1">
      <stop offset="0" stop-color="#4285F4"/>
      <stop offset="1" stop-color="#0F9D58"/>
    </linearGradient>
    <clipPath id="cardClip"><rect x="25" y="24" width="46" height="54" rx="7"/></clipPath>
  </defs>
  <rect width="220" height="140" fill="url(#bg)"/>
  <g transform="translate(15,29) scale(0.85)">
    <rect x="4" y="4" width="88" height="88" rx="20" fill="url(#bg)"/>
    <rect x="34" y="19" width="5" height="12" rx="2.5" fill="#1A73E8"/>
    <rect x="57" y="19" width="5" height="12" rx="2.5" fill="#1A73E8"/>
    <rect x="25" y="24" width="46" height="54" rx="7" fill="#ffffff"/>
    <g clip-path="url(#cardClip)">
      <rect x="25" y="24" width="46" height="13" fill="#4285F4"/>
      <g fill="#E8EAED">
        <rect x="31" y="42" width="9" height="7" rx="2"/>
        <rect x="43" y="42" width="9" height="7" rx="2"/>
        <rect x="55" y="42" width="9" height="7" rx="2"/>
        <rect x="31" y="53" width="9" height="7" rx="2"/>
        <rect x="43" y="53" width="9" height="7" rx="2"/>
        <rect x="55" y="53" width="9" height="7" rx="2"/>
      </g>
      <g fill="#0F9D58">
        <rect x="31" y="64" width="9" height="7" rx="2"/>
        <rect x="43" y="64" width="9" height="7" rx="2"/>
        <rect x="55" y="64" width="9" height="7" rx="2"/>
      </g>
    </g>
  </g>
  <text x="108" y="64" font-family="Liberation Sans" font-size="24" font-weight="700" fill="#ffffff">Calendar</text>
  <text x="108" y="92" font-family="Liberation Sans" font-size="24" font-weight="700" fill="#ffffff">Importer</text>
</svg>
